<?xml version="1.0" standalone="no"?><!-- Generator: Gravit.io --><svg xmlns="http://www.w3.org/2000/svg" xmlns:xlink="http://www.w3.org/1999/xlink" style="isolation:isolate" viewBox="476.035334285185 317.3602702209404 150.2381019552535 176.62410477905968" width="150.2381019552535" height="176.62410477905968"><path d=" M 476.035334285185 404.2924204301483 C 476.035334285185 362.8330879074504 509.69505274011385 329.17336945252157 551.1543852628117 329.17336945252157 C 592.6137177855096 329.17336945252157 626.2734362404384 362.8330879074504 626.2734362404385 404.2924204301483 C 626.2734362404385 445.7517529528461 592.6137177855096 479.411471407775 551.1543852628117 479.411471407775 C 509.69505274011385 479.411471407775 476.035334285185 445.7517529528462 476.035334285185 404.2924204301483 Z " fill="none"/><rect x="516.258326846905" y="317.3602702209404" width="18.95395417519603" height="24.403216000564953" transform="matrix(1,0,0,1,0,0)" fill="rgb(255,255,255)"/><path d=" M 522.86181640625 468.1091613769531 L 523.911376953125 480.3541564941406 L 578.6640625 484.7273864746094 L 598.7808837890625 468.2840881347656 L 596.1569213867188 457.4385070800781 L 522.86181640625 468.1091613769531 Z " fill="rgb(255,255,255)"/><g style="isolation:isolate"><path d=" M 598.5300578617581 386.58435058593756 Q 594.0300578617581 388.08435058593756 588.6300334476956 388.5343627929688 Q 583.2300700687894 388.98437500000006 575.4300822758206 388.98437500000006 Q 589.3800334476956 395.2843627929688 589.3800334476956 408.9343566894532 Q 589.3800334476956 420.7843627929688 581.2800578617581 428.2843627929688 Q 573.1800822758206 435.7843627929688 559.2300700687894 435.7843627929688 Q 553.8300456547269 435.7843627929688 549.1800822758206 434.2843627929688 Q 547.3800334476956 435.48437500000006 546.3300456547269 437.5093383789063 Q 545.2800578617581 439.5343627929688 545.2800578617581 441.6343383789063 Q 545.2800578617581 448.08435058593756 555.6300334476956 448.08435058593756 L 568.2300700687894 448.08435058593756 Q 576.1800822758206 448.08435058593756 582.3300456547269 450.9343872070313 Q 588.4800700687894 453.7843627929688 591.8550700687894 458.73437500000006 Q 595.2300700687894 463.6843872070313 595.2300700687894 469.98437500000006 Q 595.2300700687894 481.5343627929688 585.7800578617581 487.7593383789063 Q 576.3300456547269 493.98437500000006 558.1800822758206 493.98437500000006 Q 545.4300822758206 493.98437500000006 538.0050334476956 491.35937500000006 Q 530.5800456547269 488.73437500000006 527.4300822758206 483.48437500000006 Q 524.2800578617581 478.23437500000006 524.2800578617581 469.98437500000006 L 536.7300700687894 469.98437500000006 Q 536.7300700687894 474.7843627929688 538.5300578617581 477.5593872070313 Q 540.3300456547269 480.33435058593756 544.9800700687894 481.7593383789063 Q 549.6300334476956 483.1843872070313 558.1800822758206 483.1843872070313 Q 570.6300334476956 483.1843872070313 575.9550456547269 480.10937500000006 Q 581.2800578617581 477.0343627929688 581.2800578617581 470.8843383789063 Q 581.2800578617581 465.33435058593756 577.0800456547269 462.48437500000006 Q 572.8800334476956 459.6343383789063 565.3800334476956 459.6343383789063 L 552.9300822758206 459.6343383789063 Q 542.8800334476956 459.6343383789063 537.7050456547269 455.35937500000006 Q 532.5300578617581 451.08435058593756 532.5300578617581 444.6343383789063 Q 532.5300578617581 440.73437500000006 534.7800578617581 437.1343383789063 Q 537.0300578617581 433.5343627929688 541.2300700687894 430.6843872070313 Q 534.3300456547269 427.08435058593756 531.1050700687894 421.75936889648443 Q 527.8800334476956 416.4343566894532 527.8800334476956 408.7843627929688 Q 527.8800334476956 400.83435058593756 531.8550700687894 394.5343627929688 Q 535.8300456547269 388.23437500000006 542.8050822758206 384.70935058593756 Q 549.7800578617581 381.1843566894532 558.3300456547269 381.1843566894532 Q 563.1922893070706 381.26278686523443 567.2345256351956 381.07470703125006 C 569.6940593266019 380.9602661132813 571.9259318851956 380.77182006835943 573.9300822758206 380.50936889648443 Q 580.2300700687894 379.6843566894532 584.3550700687894 378.25936889648443 Q 588.4800700687894 376.83435058593756 594.4800700687894 374.13436889648443 L 598.5300578617581 386.58435058593756 Z  M 558.3300456547269 391.08435058593756 Q 550.5300578617581 391.08435058593756 546.2550334476956 395.95935058593756 Q 541.9800700687894 400.83435058593756 541.9800700687894 408.7843627929688 Q 541.9800700687894 416.88436889648443 546.3300456547269 421.75936889648443 Q 547.9602946781644 423.5863342285157 550.0960979008206 424.72860717773443 C 552.4716472172269 425.9990844726563 555.3163127445706 426.6343383789063 558.6300334476956 426.6343383789063 Q 566.7300700687894 426.6343383789063 571.0050334476956 421.9093627929688 Q 575.2800578617581 417.1843566894532 575.2800578617581 408.63436889648443 Q 575.2800578617581 391.08435058593756 558.3300456547269 391.08435058593756 Z " fill-rule="evenodd" fill="rgb(0,0,0)"/><path d=" M 594.2012329101562 346.7119445800781 L 547.8800659179688 400.35125732421875 L 559.712158203125 419.03411865234375 L 517.4956665039062 446.8575439453125 L 508.6436767578125 354.2791748046875 L 594.2012329101562 346.7119445800781 Z " fill="rgb(255,255,255)"/></g><g style="isolation:isolate"><path d=" M 533.0499877929688 319.75 L 533.0499877929688 432.25 L 519.25 432.25 L 519.25 321.3999938964844 L 533.0499877929688 319.75 Z  M 578.5 353.20001220703125 L 534.9278564453125 404.3671569824219 L 534.8482055664062 387.7852478027344 L 563.0499877929688 353.20001220703125 L 578.5 353.20001220703125 Z " fill-rule="evenodd" fill="rgb(0,0,0)"/></g></svg>