<svg xmlns="http://www.w3.org/2000/svg" xmlns:xlink="http://www.w3.org/1999/xlink" version="1.1" x="0px" y="0px" viewBox="0 0 100 125" style="enable-background:new 0 0 100 100;" xml:space="preserve"><g style="" display="none"><rect x="-1148.232" y="-939.018" style="" width="1346" height="1488" display="inline" fill="#BDACAF"/></g><g><path d="M56.736,63.072c0.189,0.396,0.591,0.672,1.056,0.672c0.466,0,0.867-0.277,1.056-0.672c0.189,0.396,0.591,0.672,1.056,0.672   c0.646,0,1.174-0.528,1.174-1.174v-4.809c0-0.646-0.528-1.174-1.174-1.174c-0.466,0-0.867,0.277-1.056,0.673   c-0.189-0.396-0.591-0.673-1.056-0.673c-0.466,0-0.867,0.277-1.056,0.673c-0.189-0.396-0.591-0.673-1.056-0.673   c-0.646,0-1.174,0.528-1.174,1.174v4.809c0,0.646,0.528,1.174,1.174,1.174C56.146,63.745,56.547,63.468,56.736,63.072z"/><path d="M41.151,63.072c0.189,0.396,0.591,0.672,1.056,0.672c0.466,0,0.867-0.277,1.056-0.672c0.189,0.396,0.591,0.672,1.056,0.672   c0.646,0,1.174-0.528,1.174-1.174v-4.809c0-0.646-0.528-1.174-1.174-1.174c-0.466,0-0.867,0.277-1.056,0.673   c-0.189-0.396-0.591-0.673-1.056-0.673c-0.466,0-0.867,0.277-1.056,0.673c-0.189-0.396-0.591-0.673-1.056-0.673   c-0.646,0-1.174,0.528-1.174,1.174v4.809c0,0.646,0.528,1.174,1.174,1.174C40.56,63.745,40.962,63.468,41.151,63.072z"/><polygon points="48.587,46.841 50,49.255 51.413,46.841 50,45.509  "/><path d="M44.233,42.82h-1.974v1.974c0,0.894,0.724,1.618,1.618,1.618h1.974v-1.974C45.851,43.544,45.126,42.82,44.233,42.82z"/><path d="M54.149,44.438v1.974h1.974c0.894,0,1.618-0.724,1.618-1.618V42.82h-1.974C54.874,42.82,54.149,43.544,54.149,44.438z"/><path d="M50,38.404c1.433-1.451,3.422-2.338,5.605-2.338c0.966,0,1.888,0.183,2.744,0.503c-2.24-2.058-5.175-3.226-8.348-3.226   c-3.174,0-6.109,1.168-8.348,3.226c0.856-0.32,1.778-0.503,2.744-0.503C46.578,36.065,48.567,36.953,50,38.404z"/><path d="M90.19,38.92c2.68-0.02,4.83-2.21,4.81-4.89l-0.01-1.01l-17.22,0.14c-0.01,1.84-0.64,3.9-1.85,5.87   c-0.38,0.63-0.82,1.25-1.32,1.85c-0.31,0.39-0.66,0.76-1.03,1.13c-2.73,2.73-6.07,4.21-8.89,4.21h-0.05   c0.09-2.67-0.56-5.36-1.97-7.8c-2.64-4.58-7.37-7.31-12.66-7.31s-10.02,2.73-12.66,7.31c-1.41,2.44-2.06,5.13-1.97,7.8h-0.05   c-2.82,0-6.16-1.48-8.89-4.21c-0.37-0.37-0.72-0.74-1.03-1.13c-0.5-0.6-0.94-1.22-1.32-1.85c-1.21-1.97-1.84-4.03-1.85-5.87   L5.01,33.02L5,34.03c-0.02,2.68,2.13,4.87,4.81,4.89l3.51,0.02l-7.97,2.53l0.31,0.96c0.65,2.06,2.56,3.38,4.62,3.38   c0.48,0,0.97-0.07,1.46-0.22l3.35-1.06l-6.8,4.86l0.58,0.82c0.95,1.32,2.44,2.03,3.95,2.03c0.98,0,1.96-0.29,2.82-0.91l4.83-3.45   l-5.39,7.29l0.75,0.55c0.8,0.59,1.73,0.88,2.65,0.88c1.36,0,2.71-0.63,3.59-1.81l2.43-3.3l2.25,0.38c0.97,0.16,1.95,0.24,2.93,0.24   c0.99,0,1.99-0.08,2.98-0.25l2.08-0.35l1.71-0.29c0.25,0.62,0.55,1.22,0.89,1.82c0.02,0.04,0.05,0.08,0.08,0.12l1.88,2.46   c0.25-0.09,0.52-0.15,0.79-0.15c0.38,0,0.74,0.1,1.06,0.26c0.27-0.13,0.56-0.22,0.86-0.25c0.07,0,0.13-0.01,0.2-0.01   c0.37,0,0.73,0.1,1.05,0.26c0.33-0.16,0.69-0.26,1.06-0.26c1.26,0,2.29,1.03,2.29,2.29v4.81c0,0.66-0.28,1.24-0.72,1.66l3.22,4.22   c0.21,0.28,0.54,0.44,0.89,0.44s0.68-0.16,0.89-0.44l3.22-4.22c-0.44-0.42-0.72-1-0.72-1.66v-4.81c0-1.26,1.03-2.29,2.29-2.29   c0.37,0,0.73,0.1,1.06,0.26c0.32-0.16,0.68-0.26,1.05-0.26c0.07,0,0.13,0.01,0.2,0.01c0.3,0.03,0.59,0.12,0.86,0.25   c0.32-0.16,0.68-0.26,1.06-0.26c0.27,0,0.54,0.06,0.79,0.15l1.88-2.46c0.03-0.04,0.06-0.08,0.08-0.12c0.34-0.6,0.64-1.2,0.89-1.82   l1.71,0.29l2.08,0.35c0.99,0.17,1.99,0.25,2.98,0.25c0.98,0,1.96-0.08,2.93-0.24l2.25-0.38l2.43,3.3c0.88,1.18,2.23,1.81,3.59,1.81   c0.92,0,1.85-0.29,2.65-0.88l0.75-0.55l-5.39-7.29l4.83,3.45c0.86,0.62,1.84,0.91,2.82,0.91c1.51,0,3-0.71,3.95-2.03l0.58-0.82   l-6.8-4.86l3.35,1.06c0.49,0.15,0.98,0.22,1.46,0.22c2.06,0,3.97-1.32,4.62-3.38l0.31-0.96l-7.97-2.53L90.19,38.92z M56.36,49.52   v0.06H44.08v-0.01c-2.97-0.17-5.33-2.62-5.33-5.63c0-3.12,2.53-5.64,5.65-5.64c2.9,0,5.29,2.19,5.6,5.01   c0.31-2.82,2.7-5.01,5.6-5.01c3.12,0,5.65,2.52,5.65,5.64C61.25,46.8,59.12,49.15,56.36,49.52z"/></g><text x="0" y="115" fill="#000000" font-size="5px" font-weight="bold" font-family="'Helvetica Neue', Helvetica, Arial-Unicode, Arial, Sans-serif">Created by Oksana Latysheva</text><text x="0" y="120" fill="#000000" font-size="5px" font-weight="bold" font-family="'Helvetica Neue', Helvetica, Arial-Unicode, Arial, Sans-serif">from the Noun Project</text></svg>