<svg xmlns="http://www.w3.org/2000/svg" xmlns:xlink="http://www.w3.org/1999/xlink" version="1.1" x="0px" y="0px" viewBox="0 0 100 125" style="enable-background:new 0 0 100 100;" xml:space="preserve"><path d="M19.616,36.193c0.538-0.373,1.2-0.805,2.008-1.213c0.805-0.411,1.74-0.814,2.784-1.187c1.047-0.365,2.207-0.685,3.44-0.963  c0.307-0.06,0.619-0.121,0.934-0.183l0.248-0.041l0.124-0.021c0.104-0.021,0.208-0.053,0.307-0.099  c0.4-0.184,0.682-0.568,0.753-0.983l0.051-0.642l0.027-0.484c0.003-0.325,0.057-0.649,0.116-0.974  c0.395-2.615,1.766-5.209,3.637-7.4c0.917-1.114,1.958-2.141,3.055-3.069c0.399-0.332,0.79-0.645,1.188-0.953  c-0.288,1.252-0.354,2.498-0.364,3.663c-0.002,1.356,0.203,2.615,0.419,3.758c0.493,2.278,1.222,4.067,1.807,5.268  c0.588,1.203,1.017,1.834,1.017,1.834s-0.28-0.71-0.648-1.976c-0.184-0.633-0.382-1.407-0.572-2.298  c-0.202-0.888-0.337-1.906-0.474-3.004c-0.085-1.104-0.147-2.299-0.062-3.544c0.106-1.24,0.282-2.543,0.705-3.808l0.069-0.24  l0.035-0.121c0.052-0.199,0.026-0.07,0.059-0.249c0.078-0.572-0.138-1.008-0.502-1.326c-0.353-0.306-0.929-0.431-1.403-0.244  c-0.124,0.043-0.211,0.095-0.326,0.166l-0.114,0.076l-0.227,0.152c-0.617,0.409-1.255,0.878-1.84,1.363  c-1.191,0.977-2.331,2.065-3.356,3.271c-1.008,1.218-1.894,2.556-2.577,3.982c-0.706,1.417-1.1,2.965-1.273,4.467  c-0.048,0.376-0.091,0.749-0.08,1.123l-0.005,0.555l0.002,0.236l-0.116,0.029c-0.341,0.088-0.669,0.18-0.988,0.274  c-1.282,0.38-2.458,0.844-3.507,1.348c-1.053,0.495-1.97,1.051-2.742,1.594c-0.783,0.528-1.387,1.096-1.869,1.564  c-0.472,0.482-0.807,0.89-1.011,1.185c-0.21,0.288-0.322,0.442-0.322,0.442s0.14-0.128,0.402-0.369  C18.678,36.899,19.095,36.585,19.616,36.193z M38.522,17.003c0-0.003,0-0.005,0.001-0.009c0.002-0.004,0.001-0.003,0.006-0.019  L38.522,17.003z M38.524,16.984c0.001-0.008,0-0.013,0.001-0.021C38.54,16.912,38.53,16.954,38.524,16.984z"/><path d="M12.625,49.181c0.47-1,0.879-2.015,1.413-2.931c0.237-0.474,0.512-0.916,0.777-1.353c0.263-0.438,0.51-0.875,0.797-1.27  c0.541-0.813,1.094-1.556,1.611-2.242c0.544-0.662,1.04-1.279,1.511-1.8c0.474-0.517,0.888-0.975,1.25-1.33  c0.713-0.724,1.16-1.109,1.16-1.109s-0.131,0.067-0.376,0.193c-0.24,0.135-0.605,0.319-1.032,0.608  c-0.437,0.277-0.954,0.635-1.521,1.081c-0.573,0.441-1.191,0.974-1.839,1.588c-0.633,0.628-1.317,1.318-1.957,2.121  c-0.342,0.385-0.647,0.816-0.97,1.25c-0.334,0.427-0.639,0.888-0.926,1.372c-0.612,0.945-1.156,1.978-1.667,3.049  c-0.451,1.096-0.919,2.209-1.244,3.372c-0.183,0.575-0.336,1.158-0.439,1.75c-0.115,0.589-0.248,1.172-0.345,1.756  c-0.072,0.588-0.132,1.172-0.182,1.75c-0.025,0.278-0.05,0.554-0.075,0.828c-0.016,0.288-0.033,0.575-0.049,0.859  c-0.088,2.235,0.057,4.306,0.299,6.065c0.243,1.758,0.587,3.198,0.889,4.184c0.13,0.497,0.291,0.874,0.374,1.136  c0.091,0.259,0.14,0.398,0.14,0.398s-0.044-0.583-0.122-1.604c-0.08-1.015-0.13-2.465-0.135-4.19  c0.019-1.726,0.091-3.738,0.312-5.86c0.031-0.26,0.062-0.522,0.093-0.786c0.042-0.276,0.085-0.554,0.127-0.834  c0.088-0.537,0.167-1.081,0.236-1.631c0.102-0.544,0.239-1.085,0.356-1.632c0.105-0.551,0.262-1.089,0.44-1.622  C11.81,51.257,12.227,50.213,12.625,49.181z"/><path d="M22.06,74.417c-0.686-0.698-1.413-1.561-2.092-2.558c-0.344-0.495-0.66-1.032-0.975-1.581  c-0.296-0.534-0.61-1.123-0.88-1.712c-0.555-1.18-1.068-2.39-1.504-3.549c-0.436-1.159-0.811-2.262-1.125-3.22  c-0.614-1.952-1.023-3.253-1.023-3.253s-0.058,0.344-0.106,0.949c-0.048,0.61-0.073,1.479,0.007,2.521  c0.068,1.042,0.249,2.254,0.571,3.525c0.313,1.273,0.772,2.607,1.375,3.883c0.308,0.64,0.634,1.25,1.028,1.861  c0.368,0.601,0.813,1.14,1.243,1.655c0.874,1.021,1.857,1.834,2.778,2.385c0.913,0.568,1.764,0.866,2.36,1.014  c0.293,0.089,0.54,0.109,0.699,0.138c0.161,0.025,0.247,0.038,0.247,0.038s-0.299-0.187-0.779-0.537  C23.399,75.633,22.75,75.109,22.06,74.417z"/><path d="M42.487,25.518c0.357-0.327,0.758-0.661,1.191-0.993c0.43-0.335,0.911-0.649,1.411-0.959  c0.494-0.319,1.043-0.585,1.598-0.848c0.091-0.04,0.181-0.083,0.272-0.125c-0.233,0.395-0.452,0.793-0.658,1.186  c-0.591,1.171-1.001,2.35-1.184,3.4c-0.204,1.045-0.17,1.949-0.064,2.552c0.036,0.303,0.122,0.534,0.168,0.689  c0.048,0.154,0.073,0.235,0.073,0.235s0.012-0.085,0.035-0.245c0.019-0.159,0.057-0.387,0.122-0.671  c0.119-0.569,0.365-1.344,0.764-2.221c0.401-0.877,0.955-1.852,1.615-2.863c0.324-0.507,0.704-1.01,1.068-1.522l0.286-0.383  l0.151-0.199c0.008-0.007,0.088-0.123,0.143-0.223c0.053-0.106,0.102-0.218,0.13-0.338c0.229-0.984-0.492-1.971-1.632-1.897  c-0.212,0.028-0.224,0.044-0.261,0.051l-0.111,0.035l-0.031,0.013l-0.062,0.025l-0.248,0.101l-0.495,0.203  c-0.335,0.122-0.64,0.312-0.955,0.468c-0.625,0.326-1.199,0.725-1.728,1.136c-0.54,0.397-1.003,0.856-1.414,1.307  c-0.423,0.44-0.765,0.908-1.056,1.35c-0.589,0.879-0.927,1.695-1.114,2.272c-0.185,0.581-0.221,0.927-0.221,0.927  S41.061,26.83,42.487,25.518z M48.25,22.068l0.01-0.004C48.282,22.06,48.287,22.06,48.25,22.068z"/><path d="M42.11,30.966l3.878,1.465c1.278,0.5,2.526,1.051,3.715,1.68c0.299,0.158,0.589,0.32,0.87,0.483  c0.291,0.174,0.607,0.339,0.849,0.5c0.519,0.326,0.949,0.711,1.228,1.11c0.272,0.404,0.381,0.811,0.379,1.279  c-0.014,0.229-0.029,0.509-0.084,0.72c-0.009,0.086-0.072,0.299-0.11,0.454c-0.026,0.076-0.096,0.112-0.123,0.175l-0.442,1.031  l0.902,0.653c1.274,0.921,2.615,1.561,3.861,2.184c0.623,0.313,1.237,0.595,1.807,0.907l0.417,0.233l0.397,0.237l0.736,0.471  l0.013,0.011l0.411,0.358l0.631,0.017l1.534,0.042l0.767,0.021L63.857,45l0.01,0.001l0.046,0.005l0.091,0.009l0.35,0.039  c0.45,0.058,0.856,0.123,1.174,0.223c0.16,0.048,0.283,0.106,0.38,0.157c0.087,0.042,0.156,0.12,0.141,0.101  c-0.014-0.011-0.034-0.048-0.028-0.049l0.07,0.106l0.002,0.006c0.006,0.024,0.022,0.095,0.021,0.199  c0.001,0.223-0.059,0.487-0.158,0.676l-0.08,0.135c-0.057,0.073,0.012-0.005-0.109,0.136c-0.096,0.106-0.284,0.309-0.425,0.447  c-0.304,0.304-0.623,0.574-0.92,0.781c-0.142,0.103-0.299,0.198-0.404,0.252c-0.025,0.011-0.008,0.01-0.067,0.034l-0.159,0.066  c-0.279,0.109-0.544,0.261-0.78,0.447c-0.472,0.371-0.826,0.873-1.02,1.427c-0.099,0.303-0.154,0.51-0.175,0.919l-0.002,0.293  c-0.004,0.133-0.068,0.247-0.065,0.236c0.065-0.037-0.062,0.067-0.412,0.111l-0.284,0.032l-0.155,0.012l-0.043,0.001l-0.096,0.003  l-0.767,0.023l-0.767,0.024c-0.133,0.015-0.453,0.004-0.67,0.008c-0.97-0.005-1.962-0.057-2.973-0.121  c-2.02-0.13-4.128-0.307-6.298-0.161c-1.079,0.065-2.208,0.211-3.258,0.453c-1.076,0.244-2.122,0.616-3.122,1.078  c-0.996,0.47-1.951,1.033-2.814,1.713c-0.862,0.689-1.613,1.477-2.277,2.359c-0.623,0.832-1.206,1.825-1.527,2.843  c-0.351,1.021-0.424,2.133-0.263,3.158l0.2-0.006c-0.051-1.011,0.156-2.019,0.552-2.947c0.388-0.937,0.966-1.771,1.642-2.535  c1.334-1.525,3.072-2.674,4.953-3.423c1.885-0.751,3.921-1.093,5.948-1.121c2.035-0.038,4.068,0.188,6.106,0.375  c1.02,0.094,2.043,0.178,3.071,0.215c0.514,0.025,1.039,0.011,1.544,0c0.507-0.015,1.025,0.001,1.552-0.069  c0.518-0.067,1.08-0.215,1.502-0.615c0.415-0.392,0.632-0.941,0.68-1.488c0.017-0.304-0.008-0.5,0.078-0.708  c0.074-0.207,0.207-0.391,0.38-0.525c0.161-0.14,0.388-0.185,0.65-0.317c0.244-0.119,0.469-0.257,0.686-0.408  c0.433-0.303,0.822-0.655,1.187-1.025c0.352-0.369,0.742-0.754,0.973-1.258c0.234-0.491,0.347-1.032,0.336-1.574  c0.003-0.529-0.201-1.135-0.585-1.519c-0.814-0.815-1.941-0.953-2.949-1.062c-1.032-0.086-2.015-0.025-3.024-0.04l-0.028-0.023  l-0.01-0.008l-0.01-0.006c-0.592-0.362-1.202-0.731-1.835-1.042c-0.63-0.316-1.271-0.6-1.911-0.883  c-1.242-0.549-2.487-1.092-3.613-1.825c0.14-0.295,0.222-0.593,0.259-0.9c0.061-0.355,0.066-0.709,0.049-1.067  c-0.052-0.715-0.327-1.417-0.785-1.969c-0.459-0.549-1.042-0.972-1.656-1.304c-0.618-0.329-1.242-0.62-1.884-0.89  c-2.557-1.082-5.245-1.783-7.925-2.446L42.11,30.966z"/><path d="M46.688,38.396c0.051,0.19,0.115,0.393,0.225,0.607c0.108,0.208,0.26,0.429,0.573,0.668l0.135,0.096l0.06,0.04l0.03,0.02  l0.015,0.01l0.004,0.003l0.085,0.037l0.013,0.005c0.141,0.061,0.286,0.109,0.435,0.142c0.297,0.068,0.594,0.064,0.872,0.035  c0.557-0.067,1.049-0.252,1.494-0.486l0.334-0.188c0.018-0.001,0.384-0.228,0.535-0.492c0.348-0.523,0.347-1.236-0.058-1.769  c-0.324-0.361-0.344-0.298-0.458-0.397l-0.299-0.204c-0.193-0.143-0.413-0.249-0.624-0.363c-0.207-0.12-0.425-0.217-0.647-0.3  c-0.217-0.092-0.434-0.174-0.658-0.23c-0.437-0.134-0.877-0.211-1.293-0.242c-0.415-0.042-0.811-0.02-1.168,0.022  c-0.716,0.076-1.28,0.286-1.647,0.467c-0.368,0.185-0.546,0.341-0.546,0.341s0.942,0.019,2.127,0.333  c0.137,0.036,0.286,0.095,0.43,0.141C46.595,37.093,46.514,37.66,46.688,38.396z M48.126,37.282  c0.326,0.161,0.652,0.346,0.971,0.557c0.101,0.064,0.2,0.135,0.299,0.203c-0.203,0.114-0.401,0.214-0.575,0.27  c-0.274,0.066-0.385,0.132-0.625,0.031c0.009,0.018-0.097-0.024-0.188-0.108c-0.094-0.075-0.182-0.179-0.264-0.288  c-0.25-0.363-0.437-0.76-0.578-1.087C47.483,36.975,47.805,37.116,48.126,37.282z"/><path d="M87.152,73.534c-1.397-0.288-3.102-0.596-5.071-0.884c-1.969-0.286-4.204-0.559-6.66-0.673  c-1.228-0.057-2.506-0.101-3.847-0.088c-1.329,0.013-2.678,0.063-4.123,0.213c-2.849,0.317-5.801,1.076-8.688,2.19  c-2.901,1.09-5.777,2.447-8.654,3.831c-1.452,0.691-2.87,1.368-4.358,2.015c-1.449,0.62-2.899,1.164-4.434,1.507  c-3.039,0.753-6.221,0.957-9.309,0.694c-3.08-0.273-6.116-0.956-8.822-2.07c-0.669-0.244-1.364-0.604-2.039-0.912l-0.906-0.498  c-0.303-0.177-0.59-0.376-0.884-0.561c-1.146-0.784-2.154-1.717-3.002-2.741c-1.696-2.056-2.78-4.428-3.4-6.716  c-0.645-2.287-0.818-4.498-0.954-6.465c-0.12-1.964-0.104-3.684-0.028-5.098c0.088-1.412,0.203-2.523,0.32-3.274  c0.111-0.753,0.196-1.152,0.196-1.152s-0.121,0.388-0.302,1.13c-0.178,0.743-0.427,1.84-0.6,3.26  c-0.176,1.419-0.311,3.155-0.327,5.151c-0.003,1.982,0.009,4.277,0.585,6.722c0.53,2.436,1.552,5.048,3.348,7.368  c0.891,1.158,1.97,2.234,3.214,3.151c0.318,0.218,0.631,0.45,0.96,0.658c0.344,0.199,0.691,0.4,1.039,0.601  c0.68,0.327,1.32,0.681,2.076,0.983c2.908,1.256,6.065,2.078,9.355,2.382c3.282,0.303,6.674,0.113,9.953-0.673  c1.639-0.373,3.242-0.989,4.761-1.654c1.477-0.655,2.965-1.377,4.396-2.072c2.887-1.39,5.664-2.828,8.454-3.929  c2.778-1.123,5.548-1.951,8.24-2.35c1.328-0.191,2.695-0.282,3.992-0.356c1.286-0.076,2.547-0.097,3.757-0.101  c4.839,0.029,8.885,0.416,11.698,0.793c2.816,0.37,4.416,0.674,4.416,0.674S89.946,74.115,87.152,73.534z"/><text x="0" y="115" fill="#000000" font-size="5px" font-weight="bold" font-family="'Helvetica Neue', Helvetica, Arial-Unicode, Arial, Sans-serif">Created by Alina Oleynik</text><text x="0" y="120" fill="#000000" font-size="5px" font-weight="bold" font-family="'Helvetica Neue', Helvetica, Arial-Unicode, Arial, Sans-serif">from the Noun Project</text></svg>