<?xml version="1.0" standalone="no"?><!-- Generator: Gravit.io --><svg xmlns="http://www.w3.org/2000/svg" xmlns:xlink="http://www.w3.org/1999/xlink" style="isolation:isolate" viewBox="743 477.9099141602262 239.1634422079053 113.09008583977379" width="239.1634422079053" height="113.09008583977379"><path d=" M 891 493 Q 850.2857055664062 499.17828369140625 832 501 Q 814.1199340820312 502.7812805175781 772 506 Q 803.32080078125 524.2138061523438 818 531 C 832.8052978515625 537.844482421875 853.2294311523438 538.6162109375 870 539" fill="none"/><g style="isolation: isolate;"><path d=" M 891 493 Q 850.2857055664062 499.17828369140625 832 501 Q 814.1199340820312 502.7812805175781 772 506 Q 803.32080078125 524.2138061523438 818 531 C 832.8052978515625 537.844482421875 853.2294311523438 538.6162109375 870 539" fill="none" vector-effect="non-scaling-stroke" stroke-width="5" stroke="rgb(0,0,0)" stroke-linejoin="miter" stroke-linecap="round" stroke-miterlimit="3"/></g><path d=" M 783 493 Q 777.8930053710938 503.0203857421875 772 506 Q 762.1041259765625 511.18426513671875 755 523" fill="none"/><g style="isolation: isolate;"><path d=" M 783 493 Q 777.8930053710938 503.0203857421875 772 506 Q 762.1041259765625 511.18426513671875 755 523" fill="none" vector-effect="non-scaling-stroke" stroke-width="5" stroke="rgb(0,0,0)" stroke-linejoin="miter" stroke-linecap="round" stroke-miterlimit="3"/></g><path d=" M 885 517 Q 878 547 871 562 Q 864 577 853 579" fill="none"/><g style="isolation: isolate;"><path d=" M 885 517 Q 878 547 871 562 Q 864 577 853 579" fill="none" vector-effect="non-scaling-stroke" stroke-width="5" stroke="rgb(0,0,0)" stroke-linejoin="miter" stroke-linecap="round" stroke-miterlimit="3"/></g><path d=" M 961 496 Q 941.6666870117188 487.3333435058594 922 491 C 902.3333129882812 494.6666564941406 892.7999267578125 506.1109619140625 894 518 C 895.2000732421875 529.8890380859375 913.663818359375 532.8226318359375 923 533 C 932.336181640625 533.1773681640625 943.2703247070312 529.983154296875 953 527 C 962.7296752929688 524.016845703125 971.4757080078125 520.0317687988281 970 514.4393310546875 C 968.5242919921875 508.8468933105469 941.5762329101562 508.39996337890625 931 509 Q 920.4237670898438 509.60003662109375 914 512" fill="none"/><g style="isolation: isolate;"><path d=" M 961 496 Q 941.6666870117188 487.3333435058594 922 491 C 902.3333129882812 494.6666564941406 892.7999267578125 506.1109619140625 894 518 C 895.2000732421875 529.8890380859375 913.663818359375 532.8226318359375 923 533 C 932.336181640625 533.1773681640625 943.2703247070312 529.983154296875 953 527 C 962.7296752929688 524.016845703125 971.4757080078125 520.0317687988281 970 514.4393310546875 C 968.5242919921875 508.8468933105469 941.5762329101562 508.39996337890625 931 509 Q 920.4237670898438 509.60003662109375 914 512" fill="none" vector-effect="non-scaling-stroke" stroke-width="5" stroke="rgb(0,0,0)" stroke-linejoin="miter" stroke-linecap="round" stroke-miterlimit="3"/></g></svg>