<?xml version="1.0" standalone="no"?><!-- Generator: Gravit.io --><svg xmlns="http://www.w3.org/2000/svg" xmlns:xlink="http://www.w3.org/1999/xlink" style="isolation:isolate" viewBox="24.086 18.5 225.289 194.273" width="225.289" height="194.273"><path d=" M 111.875 109.5 C 107.379 99.42 81.407 27.648 78.375 18.5 C 60.833 35.333 59.833 52.667 63.125 72.75 C 55.5 65.333 50.167 60.333 42.625 52.5 C 29.167 74.333 35.167 100.667 47.125 116.75 C 37.833 114.333 32.5 113.333 24.125 111.75 C 23.167 142.333 39.833 163 68.667 172 C 50.333 212.333 113.125 223.792 139.667 201.667 C 140 205.667 140.333 206.667 142.333 211.333 C 145 200.667 151.021 196.342 163.333 198.333 C 158.84 193.012 158 192.667 153.667 191.667 C 204.458 182.875 243.667 149 249.375 110.25 C 243 112 238 113.333 231.625 114.75 C 240.667 98.667 247.131 81.15 235.125 51.25 C 230.375 57.133 186.412 111.428 177.875 121 C 165.25 101.5 135.375 92.125 111.875 109.5 Z " fill="rgb(0,0,0)"/><path d=" M 161 120.75 C 139.5 99 122.069 113.223 117.5 132 C 113.732 147.483 124.25 161.25 141.5 163.5 C 158.75 165.75 170.375 155 173.375 147.25 C 176.375 139.5 180.375 119.5 161 120.75 Z " fill="rgb(255,255,255)"/><path d=" M 143.891 150.558 Q 143.597 156.271 141.568 160.682 Q 146.941 156.952 150.29 154.212 L 143.891 150.558 Z " fill="rgb(0,0,0)"/><path d=" M 154.719 146.564 C 155.441 144.76 157.899 144.043 160.205 144.965 C 162.511 145.887 163.798 148.1 163.076 149.905 C 162.355 151.709 159.897 152.426 157.591 151.504 C 155.285 150.582 153.998 148.369 154.719 146.564 Z " fill="rgb(0,0,0)"/><path d=" M 137.719 138.564 C 138.441 136.76 140.899 136.043 143.205 136.965 C 145.511 137.887 146.798 140.1 146.076 141.905 C 145.355 143.709 142.897 144.426 140.591 143.504 C 138.285 142.582 136.998 140.369 137.719 138.564 Z " fill="rgb(0,0,0)"/></svg>